<svg width="24" height="24" viewBox="0 0 24 24" fill="none" xmlns="http://www.w3.org/2000/svg">
<g id="Frame">
<g id="Group">
<path id="Vector" d="M8.66683 3.99998C9.40321 3.99998 10.0002 3.40303 10.0002 2.66665C10.0002 1.93027 9.40321 1.33331 8.66683 1.33331C7.93045 1.33331 7.3335 1.93027 7.3335 2.66665C7.3335 3.40303 7.93045 3.99998 8.66683 3.99998Z" fill="#141210"/>
<path id="Vector_2" d="M15.3333 3.99998C16.0697 3.99998 16.6667 3.40303 16.6667 2.66665C16.6667 1.93027 16.0697 1.33331 15.3333 1.33331C14.597 1.33331 14 1.93027 14 2.66665C14 3.40303 14.597 3.99998 15.3333 3.99998Z" fill="#141210"/>
<path id="Vector_3" d="M21.3333 9.99998C22.0697 9.99998 22.6667 9.40303 22.6667 8.66665C22.6667 7.93027 22.0697 7.33331 21.3333 7.33331C20.597 7.33331 20 7.93027 20 8.66665C20 9.40303 20.597 9.99998 21.3333 9.99998Z" fill="#141210"/>
<path id="Vector_4" d="M21.3333 16.6667C22.0697 16.6667 22.6667 16.0697 22.6667 15.3333C22.6667 14.597 22.0697 14 21.3333 14C20.597 14 20 14.597 20 15.3333C20 16.0697 20.597 16.6667 21.3333 16.6667Z" fill="#141210"/>
<path id="Vector_5" d="M15.3333 22.6667C16.0697 22.6667 16.6667 22.0697 16.6667 21.3333C16.6667 20.597 16.0697 20 15.3333 20C14.597 20 14 20.597 14 21.3333C14 22.0697 14.597 22.6667 15.3333 22.6667Z" fill="#141210"/>
<path id="Vector_6" d="M8.66683 22.6667C9.40321 22.6667 10.0002 22.0697 10.0002 21.3333C10.0002 20.597 9.40321 20 8.66683 20C7.93045 20 7.3335 20.597 7.3335 21.3333C7.3335 22.0697 7.93045 22.6667 8.66683 22.6667Z" fill="#141210"/>
<path id="Vector_7" d="M2.66683 16.6667C3.40321 16.6667 4.00016 16.0697 4.00016 15.3333C4.00016 14.597 3.40321 14 2.66683 14C1.93045 14 1.3335 14.597 1.3335 15.3333C1.3335 16.0697 1.93045 16.6667 2.66683 16.6667Z" fill="#141210"/>
<path id="Vector_8" d="M2.66683 9.99998C3.40321 9.99998 4.00016 9.40303 4.00016 8.66665C4.00016 7.93027 3.40321 7.33331 2.66683 7.33331C1.93045 7.33331 1.3335 7.93027 1.3335 8.66665C1.3335 9.40303 1.93045 9.99998 2.66683 9.99998Z" fill="#141210"/>
<path id="Vector_9" d="M8.66667 11.3333C10.1394 11.3333 11.3333 10.1394 11.3333 8.66667C11.3333 7.19391 10.1394 6 8.66667 6C7.19391 6 6 7.19391 6 8.66667C6 10.1394 7.19391 11.3333 8.66667 11.3333Z" fill="#141210"/>
<path id="Vector_10" d="M15.3337 11.3333C16.8064 11.3333 18.0003 10.1394 18.0003 8.66667C18.0003 7.19391 16.8064 6 15.3337 6C13.8609 6 12.667 7.19391 12.667 8.66667C12.667 10.1394 13.8609 11.3333 15.3337 11.3333Z" fill="#141210"/>
<path id="Vector_11" d="M8.66667 18C10.1394 18 11.3333 16.8061 11.3333 15.3334C11.3333 13.8606 10.1394 12.6667 8.66667 12.6667C7.19391 12.6667 6 13.8606 6 15.3334C6 16.8061 7.19391 18 8.66667 18Z" fill="#141210"/>
<path id="Vector_12" d="M15.3337 18C16.8064 18 18.0003 16.8061 18.0003 15.3334C18.0003 13.8606 16.8064 12.6667 15.3337 12.6667C13.8609 12.6667 12.667 13.8606 12.667 15.3334C12.667 16.8061 13.8609 18 15.3337 18Z" fill="#141210"/>
</g>
</g>
</svg>
