<svg width="24" height="24" viewBox="0 0 24 24" fill="none" xmlns="http://www.w3.org/2000/svg">
<g id="Frame">
<g id="Group">
<path id="Vector" d="M3.55353 8.948L11.3802 4.82667C11.7695 4.62134 12.2335 4.62134 12.6229 4.82667L20.4495 8.948C21.1615 9.32267 21.1615 10.3427 20.4495 10.7173L12.6229 14.8387C12.2335 15.044 11.7695 15.044 11.3802 14.8387L3.55353 10.7173C2.84153 10.3427 2.84153 9.32267 3.55353 8.948Z" stroke="#141210" stroke-width="2" stroke-linecap="round" stroke-linejoin="round"/>
<path id="Vector_2" d="M20.9814 14.1667C20.9814 14.5147 20.8028 14.864 20.4468 15.052L12.6201 19.1734C12.2308 19.3787 11.7668 19.3787 11.3774 19.1734L3.55078 15.052C3.19478 14.864 3.01611 14.516 3.01611 14.1667" stroke="#141210" stroke-width="2" stroke-linecap="round" stroke-linejoin="round"/>
</g>
</g>
</svg>
